<svg width="320" height="400" viewBox="0 0 320 400" xmlns="http://www.w3.org/2000/svg">
  <rect width="320" height="400" fill="#ffffff" />
  
  <!-- Header - Name and Title -->
  <rect x="30" y="30" width="120" height="10" fill="#111827" />
  <rect x="30" y="50" width="80" height="6" fill="#4b5563" />
  
  <!-- Contact info -->
  <rect x="30" y="70" width="35" height="4" fill="#6b7280" />
  <rect x="75" y="70" width="35" height="4" fill="#6b7280" />
  <rect x="120" y="70" width="35" height="4" fill="#6b7280" />
  <rect x="165" y="70" width="35" height="4" fill="#3b82f6" />
  
  <!-- Summary Section -->
  <rect x="30" y="100" width="260" height="5" fill="#111827" />
  <rect x="30" y="107" width="260" height="1" fill="#e5e7eb" />
  <rect x="30" y="115" width="90" height="5" fill="#6b7280" />
  <rect x="30" y="125" width="260" height="4" fill="#6b7280" />
  <rect x="30" y="133" width="250" height="4" fill="#6b7280" />
  <rect x="30" y="141" width="240" height="4" fill="#6b7280" />
  
  <!-- Skills Section -->
  <rect x="30" y="170" width="260" height="5" fill="#111827" />
  <rect x="30" y="177" width="260" height="1" fill="#e5e7eb" />
  
  <rect x="35" y="190" width="45" height="18" rx="2" fill="#f3f4f6" stroke="#e5e7eb" />
  <rect x="45" y="197" width="25" height="4" fill="#111827" />
  
  <rect x="85" y="190" width="50" height="18" rx="2" fill="#f3f4f6" stroke="#e5e7eb" />
  <rect x="95" y="197" width="30" height="4" fill="#111827" />
  
  <rect x="140" y="190" width="40" height="18" rx="2" fill="#f3f4f6" stroke="#e5e7eb" />
  <rect x="150" y="197" width="20" height="4" fill="#111827" />
  
  <rect x="185" y="190" width="45" height="18" rx="2" fill="#f3f4f6" stroke="#e5e7eb" />
  <rect x="195" y="197" width="25" height="4" fill="#111827" />
  
  <!-- Experience Section -->
  <rect x="30" y="225" width="260" height="5" fill="#111827" />
  <rect x="30" y="232" width="260" height="1" fill="#e5e7eb" />
  
  <!-- Job 1 -->
  <rect x="30" y="245" width="90" height="5" fill="#111827" />
  <rect x="240" y="245" width="50" height="4" fill="#6b7280" />
  <rect x="30" y="255" width="70" height="4" fill="#374151" />
  
  <rect x="40" y="270" width="5" height="5" fill="#3b82f6" />
  <rect x="50" y="270" width="200" height="3" fill="#6b7280" />
  
  <rect x="40" y="280" width="5" height="5" fill="#3b82f6" />
  <rect x="50" y="280" width="190" height="3" fill="#6b7280" />
  
  <!-- Job 2 -->
  <rect x="30" y="300" width="85" height="5" fill="#111827" />
  <rect x="240" y="300" width="50" height="4" fill="#6b7280" />
  <rect x="30" y="310" width="65" height="4" fill="#374151" />
  
  <rect x="40" y="325" width="5" height="5" fill="#3b82f6" />
  <rect x="50" y="325" width="200" height="3" fill="#6b7280" />
  
  <rect x="40" y="335" width="5" height="5" fill="#3b82f6" />
  <rect x="50" y="335" width="190" height="3" fill="#6b7280" />
  
  <!-- Footer -->
  <rect x="30" y="370" width="260" height="1" fill="#e5e7eb" />
  <rect x="70" y="380" width="180" height="3" fill="#6b7280" />
  
  <!-- Tech Minimal label -->
  <rect x="95" y="345" width="130" height="20" rx="2" fill="#111827" />
  <rect x="105" y="353" width="110" height="4" fill="#ffffff" />
</svg>
